# xmcd
#
# Track frame offsets:
#	150
#	14986
#	32979
#	45779
#	57987
#	76134
#	89138
#	102239
#	118558
#	135850
#	147701
#
# Disc length: 2231 seconds
#
# Revision: 1
# Processed by: cddbd v1.5.2PL0 Copyright (c) Steve Scherf et al.
# Submitted via: audiograbber 1.83.01
#
DISCID=9508b50b
DTITLE=Matthew Stubbs - Soul Bender
DYEAR=2008
DGENRE=
TTITLE0=Soul Bender
TTITLE1=Sticky Bunz
TTITLE2=Rivelli's Mood
TTITLE3=Jacksonville Jerk
TTITLE4=20 Gallons of Beadle Juice
TTITLE5=Stomping On Thru
TTITLE6=Stubbs Sauce
TTITLE7=Charlotte Ann
TTITLE8=Funky Head
TTITLE9=The Meat Sweats
TTITLE10=Stubbzilla
EXTD=
EXTT0=
EXTT1=
EXTT2=
EXTT3=
EXTT4=
EXTT5=
EXTT6=
EXTT7=
EXTT8=
EXTT9=
EXTT10=
PLAYORDER=
